<?xml version="1.0" standalone="no"?><!DOCTYPE svg PUBLIC "-//W3C//DTD SVG 1.1//EN" "http://www.w3.org/Graphics/SVG/1.1/DTD/svg11.dtd"><svg t="1646568771458" class="icon" viewBox="0 0 1024 1024" version="1.1" xmlns="http://www.w3.org/2000/svg" p-id="2310" xmlns:xlink="http://www.w3.org/1999/xlink" width="200" height="200"><defs><style type="text/css">@font-face { font-weight: 400; font-style: normal; font-family: Circular-Loom; src: url("https://cdn.loom.com/assets/fonts/circular/CircularXXWeb-Book-cd7d2bcec649b1243839a15d5eb8f0a3.woff2") format("woff2"); }
@font-face { font-weight: 500; font-style: normal; font-family: Circular-Loom; src: url("https://cdn.loom.com/assets/fonts/circular/CircularXXWeb-Medium-d74eac43c78bd5852478998ce63dceb3.woff2") format("woff2"); }
@font-face { font-weight: 700; font-style: normal; font-family: Circular-Loom; src: url("https://cdn.loom.com/assets/fonts/circular/CircularXXWeb-Bold-83b8ceaf77f49c7cffa44107561909e4.woff2") format("woff2"); }
@font-face { font-weight: 900; font-style: normal; font-family: Circular-Loom; src: url("https://cdn.loom.com/assets/fonts/circular/CircularXXWeb-Black-bf067ecb8aa777ceb6df7d72226febca.woff2") format("woff2"); }
</style></defs><path d="M259.719698 634.68336h149.120009v199.922756h-149.120009z" fill="#DB8689" p-id="2311"></path><path d="M259.719698 834.606116v42.985971h107.532856l15.583232-15.585748 15.585748 15.585748h10.420689v-42.985971z" fill="#283038" p-id="2312"></path><path d="M598.075093 634.68336h149.117493v199.922756h-149.117493z" fill="#DB8689" p-id="2313"></path><path d="M598.075093 834.606116v42.985971h107.527824l15.585748-15.585748 15.588264 15.585748h10.415657v-42.985971z" fill="#283038" p-id="2314"></path><path d="M100.838155 435.467562H56.59677C25.390052 435.467562 0 410.074994 0 378.86576s25.390052-56.599286 56.59677-56.599285a15.784501 15.784501 0 0 1 0 31.569002c-13.802004 0-25.027768 11.22828-25.027768 25.030283s11.225764 25.030284 25.027768 25.030284h44.241385a15.784501 15.784501 0 0 1 0 31.571518z" fill="#FF9C9F" p-id="2315"></path><path d="M100.838155 435.467562c-31.206718 0-56.59677-25.390052-56.59677-56.599286s25.390052-56.599286 56.59677-56.599285 56.601801 25.390052 56.601801 56.599285-25.395083 56.599286-56.601801 56.599286z m0-81.632085c-13.802004 0-25.027768 11.22828-25.027768 25.030283s11.225764 25.030284 25.027768 25.030284 25.0328-11.22828 25.032799-25.030284c0-13.799488-11.230796-25.030284-25.032799-25.030283z" fill="#DB8689" p-id="2316"></path><path d="M767.845275 222.328998c32.348918-51.937398 116.124515-94.538443 168.76887-62.906545l-72.542286 120.726022-96.226584-57.819477z" fill="#FF9C9F" p-id="2317"></path><path d="M945.92534 307.737388c20.134422-47.016378 22.459076-116.174833-9.311195-148.312419-43.29039-12.966739-103.265959 21.558398-135.328069 61.402061-0.017611 0.037738-0.500656 0.772369-0.714504 1.119557a17.180803 17.180803 0 0 0 5.877047 23.573601l115.254028 69.254058a17.183319 17.183319 0 0 0 23.573601-5.879563c0.208816-0.349704 0.631481-1.122073 0.649092-1.157295z" fill="#FFB6B6" p-id="2318"></path><path d="M156.023527 834.606116v42.985971h107.53034l15.583233-15.585748 15.585748 15.585748h10.420689v-42.985971z" fill="#333E48" p-id="2319"></path><path d="M754.287309 188.714602c-82.283693 0-154.846105 41.632439-197.774211 104.981775h-228.422409c-130.917768 0-237.044258 106.129007-237.044259 237.044259 0 63.160646 24.703222 120.547396 64.977097 163.032711v140.832769h149.122526v-67.930716c7.550094 0.724567 15.200822 1.109494 22.944636 1.109494h166.280685v66.821222h149.122526v-80.067221c47.484327-16.609703 88.070169-47.896928 116.318236-88.429937 129.295039-2.938524 233.202541-108.662477 233.202541-238.661956 0-131.848636-106.881248-238.7324-238.727368-238.7324z" fill="#FF9C9F" p-id="2320"></path><path d="M955.301947 503.519038h-113.24134c-37.936642 0-68.695537-30.758895-68.695537-68.698052 0-37.941673 30.758895-68.698053 68.695537-68.698053h113.24134v137.396105z" fill="#DB8689" p-id="2321"></path><path d="M955.301947 366.122933c37.939157 0 68.698053 30.756379 68.698053 68.698053s-30.758895 68.698053-68.698053 68.698052h-68.718179c-37.941673 0-68.700569-30.758895-68.700569-68.698052 0-37.941673 30.758895-68.698053 68.700569-68.698053h68.718179z" fill="#FFB6B6" p-id="2322"></path><path d="M874.512675 415.692908a17.097779 17.097779 0 0 1 34.193043 0v38.256156a17.095264 17.095264 0 0 1-34.193043 0v-38.256156zM984.372701 415.692908a17.097779 17.097779 0 0 0-34.190527 0v38.256156a17.097779 17.097779 0 0 0 34.190527 0v-38.256156z" fill="#DB8689" p-id="2323"></path><path d="M783.076287 322.372141m-19.070214 0a19.070213 19.070213 0 1 0 38.140427 0 19.070213 19.070213 0 1 0-38.140427 0Z" fill="#333E48" p-id="2324"></path><path d="M930.65659 322.372141m-19.067697 0a19.067697 19.067697 0 1 0 38.135394 0 19.067697 19.067697 0 1 0-38.135394 0Z" fill="#333E48" p-id="2325"></path><path d="M494.368858 834.606116v42.985971h107.532856l15.585748-15.585748 15.583233 15.585748h10.420689v-42.985971z" fill="#333E48" p-id="2326"></path><path d="M198.186812 457.934185m-32.391687 0a32.391688 32.391688 0 1 0 64.783375 0 32.391688 32.391688 0 1 0-64.783375 0Z" fill="#DB8689" p-id="2327"></path><path d="M305.141021 398.597644m-32.391688 0a32.391688 32.391688 0 1 0 64.783376 0 32.391688 32.391688 0 1 0-64.783376 0Z" fill="#DB8689" p-id="2328"></path><path d="M285.612921 487.895553m-19.281545 0a19.281545 19.281545 0 1 0 38.563091 0 19.281545 19.281545 0 1 0-38.563091 0Z" fill="#DB8689" p-id="2329"></path><path d="M567.917488 326.143414c-28.804073-53.985308-23.810092-147.836921 29.906019-177.614631l68.282935 123.186532-98.188954 54.428099z" fill="#FF9C9F" p-id="2330"></path><path d="M730.92504 214.622921c-30.653229-40.938062-89.383447-77.53375-133.099018-66.089107-32.877249 31.010481-32.962788 100.206674-14.488833 147.897302 0.025159 0.037738 0.417633 0.825202 0.611354 1.182454a17.180803 17.180803 0 0 0 23.352205 6.699733l117.606357-65.188429a17.185835 17.185835 0 0 0 6.694701-23.357237c-0.196237-0.359768-0.656639-1.109494-0.676766-1.144716z" fill="#FFB6B6" p-id="2331"></path></svg>